<?xml version="1.0" standalone="no"?>
<!DOCTYPE svg PUBLIC "-//W3C//DTD SVG 20010904//EN"
 "http://www.w3.org/TR/2001/REC-SVG-20010904/DTD/svg10.dtd">
<svg version="1.0" xmlns="http://www.w3.org/2000/svg"
 width="960.000000pt" height="960.000000pt" viewBox="0 0 960.000000 960.000000"
 preserveAspectRatio="xMidYMid meet">
<metadata>
Created by potrace 1.14, written by Peter Selinger 2001-2017
</metadata>
<g transform="translate(0.000000,960.000000) scale(0.100000,-0.100000)"
fill="#000000" stroke="none">
<path d="M2430 8073 c-240 -32 -431 -125 -596 -288 -207 -207 -317 -475 -308
-755 3 -103 5 -118 25 -210 12 -52 72 -207 101 -260 70 -124 203 -270 323
-354 252 -176 617 -221 920 -113 334 120 594 435 659 802 13 74 15 268 2 320
-2 11 -9 41 -15 67 -14 59 -49 154 -87 233 -113 233 -366 450 -604 518 -105
29 -176 40 -285 41 -60 1 -121 1 -135 -1z"/>
<path d="M7071 8059 c-114 -22 -177 -42 -256 -82 -201 -100 -369 -270 -467
-469 -75 -155 -109 -292 -110 -443 0 -101 3 -128 23 -220 32 -148 127 -345
209 -435 110 -121 155 -162 231 -211 72 -48 139 -81 214 -107 54 -19 83 -27
180 -47 50 -11 252 -13 303 -3 26 4 58 11 72 13 76 14 155 41 235 79 279 136
487 405 554 716 20 95 20 93 22 205 2 206 -68 421 -195 595 -125 173 -302 308
-486 372 -157 54 -365 69 -529 37z"/>
<path d="M4675 6433 c-309 -30 -624 -201 -823 -446 -136 -168 -216 -337 -263
-552 -14 -67 -18 -320 -6 -404 24 -173 91 -341 198 -506 65 -98 229 -263 326
-328 208 -138 455 -215 693 -215 52 0 115 3 140 8 25 4 63 11 85 14 150 23
364 116 502 218 243 179 419 454 479 748 19 90 25 330 11 425 -17 120 -73 285
-134 395 -167 300 -446 520 -773 609 -126 34 -297 47 -435 34z"/>
<path d="M1979 5616 c-2 -2 -33 -6 -69 -9 -235 -21 -502 -127 -688 -273 -69
-54 -216 -208 -266 -278 -110 -154 -206 -386 -230 -551 -31 -217 -30 -299 7
-370 33 -66 72 -101 143 -130 l59 -24 1387 -1 1388 0 -74 74 c-254 253 -418
600 -463 979 -15 120 -5 419 14 450 2 4 -8 12 -24 18 -15 6 -41 16 -58 24 -42
19 -118 42 -195 59 -36 8 -78 18 -95 22 -31 7 -828 17 -836 10z"/>
<path d="M6825 5610 c-137 -22 -230 -45 -330 -86 l-80 -32 3 -36 c2 -20 7 -49
11 -64 9 -33 7 -310 -3 -372 -67 -415 -197 -690 -453 -957 l-80 -83 1383 0
1383 0 57 21 c70 26 128 78 156 138 27 58 31 160 12 293 -36 256 -111 444
-266 659 -41 57 -191 204 -267 261 -156 118 -396 219 -580 244 -25 3 -55 9
-66 12 -32 8 -825 10 -880 2z"/>
<path d="M3878 3565 c-3 -3 -25 -8 -49 -11 -174 -22 -352 -74 -507 -145 -79
-37 -253 -139 -277 -163 -7 -6 -25 -20 -40 -31 -38 -26 -145 -125 -212 -196
-187 -198 -323 -445 -394 -714 -22 -86 -24 -95 -34 -168 -4 -27 -8 -57 -10
-67 -2 -9 -6 -62 -10 -117 -15 -236 75 -378 266 -422 29 -7 776 -10 2214 -8
2069 2 2172 3 2215 20 40 17 95 52 126 82 22 21 60 91 75 135 24 77 13 294
-25 485 -7 37 -38 139 -62 210 -137 396 -490 780 -881 956 -144 65 -251 99
-418 132 -107 21 -134 21 -1041 24 -512 1 -934 0 -936 -2z"/>
</g>
</svg>
